<svg xmlns="http://www.w3.org/2000/svg" xmlns:xlink="http://www.w3.org/1999/xlink" width="100" height="100" viewBox="0 0 100 100"><g><rect width="100%" height="100%" fill="#ffffff"></rect><g transform="translate(50 50) scale(0.69 0.69) rotate(0) translate(-50 -50)" style="fill:#ca0c24"><svg fill="#ca0c24" xmlns="http://www.w3.org/2000/svg" xmlns:xlink="http://www.w3.org/1999/xlink" version="1.0" x="0px" y="0px" viewBox="0 0 24 24" enable-background="new 0 0 24 24" xml:space="preserve"><path d="M20,7.2c0,3.6-0.5,8.1-2.1,9.7c-1,1-7.6,1.8-8.9,1.3c-1.2-0.4-3.6-0.7-5.6-5.9C2.1,9,4.3,7.9,5.1,7.9  c0.2,2.5,1.3,4.9,1.8,5.2c-0.4-0.9-0.9-4.8-0.9-5.9C6.1,3.4,7.4,2,13.1,2S20,3.4,20,7.2z"></path><path d="M18.3,17.8c0,0-2.6,1-5.8,0.7c-2.8-0.2-4.3-1.2-4.3-1.2c0,1.9,0.3,3.6,0.6,3.9c0.5,0.5,1.7,0.8,4.5,0.8s4.1-0.3,4.4-0.8  C18.1,20.2,18.3,17.8,18.3,17.8z"></path></svg></g></g></svg>