<svg xmlns="http://www.w3.org/2000/svg" xmlns:xlink="http://www.w3.org/1999/xlink" width="100" height="100" viewBox="0 0 100 100"><g><rect width="100%" height="100%" fill="#ffffff"></rect><g transform="translate(50 50) scale(0.69 0.69) rotate(0) translate(-50 -50)" style="fill:#0b0a0a"><svg fill="#0b0a0a" xmlns:dc="http://purl.org/dc/elements/1.1/" xmlns:cc="http://creativecommons.org/ns#" xmlns:rdf="http://www.w3.org/1999/02/22-rdf-syntax-ns#" xmlns:svg="http://www.w3.org/2000/svg" xmlns="http://www.w3.org/2000/svg" xmlns:sodipodi="http://sodipodi.sourceforge.net/DTD/sodipodi-0.dtd" xmlns:inkscape="http://www.inkscape.org/namespaces/inkscape" viewBox="0 0 32 32.000001" version="1.1" x="0px" y="0px"><g transform="translate(0,-1020.3622)"><path style="color:#000000;font-style:normal;font-variant:normal;font-weight:normal;font-stretch:normal;font-size:medium;line-height:normal;font-family:sans-serif;text-indent:0;text-align:start;text-decoration:none;text-decoration-line:none;text-decoration-style:solid;text-decoration-color:#000000;letter-spacing:normal;word-spacing:normal;text-transform:none;direction:ltr;block-progression:tb;writing-mode:lr-tb;baseline-shift:baseline;text-anchor:start;white-space:normal;clip-rule:nonzero;display:inline;overflow:visible;visibility:visible;opacity:1;isolation:auto;mix-blend-mode:normal;color-interpolation:sRGB;color-interpolation-filters:linearRGB;solid-color:#000000;solid-opacity:1;fill:#0b0a0a;fill-opacity:1;fill-rule:nonzero;stroke:none;stroke-width:0.99999988;stroke-linecap:butt;stroke-linejoin:round;stroke-miterlimit:4;stroke-dasharray:none;stroke-dashoffset:0.1;stroke-opacity:1;color-rendering:auto;image-rendering:auto;shape-rendering:auto;text-rendering:auto;enable-background:accumulate" d="m 15.992203,1023.3513 c -0.276145,0 -0.496509,0.2317 -0.492188,0.5078 l 0,0.6836 -12.5000002,5.5547 0,-0.2383 c 0.0044,-0.2822 -0.225546,-0.5122 -0.507812,-0.5078 -0.276145,0 -0.4965086,0.2317 -0.492188,0.5078 l 0,1.4727 c -3.675e-4,0.011 -3.675e-4,0.022 0,0.033 l 0,5.4941 0,0.012 0,3.5 0,2.5 c -4.65e-5,0.1977 0.1163,0.3768 0.296875,0.4571 l 13.4707032,5.9863 0.0293,0.014 c 0.0051,0 0.01036,0.01 0.01563,0.01 0.01028,0 0.02071,0.01 0.03125,0.012 0.01603,0.01 0.03233,0.01 0.04883,0.014 0.0161,0 0.0324,0.01 0.04883,0.01 l 0.01563,0 c 0.0059,10e-5 0.01172,10e-5 0.01758,0 0.01106,3e-4 0.02214,3e-4 0.0332,0 0.01106,3e-4 0.02214,3e-4 0.0332,0 0.03305,0 0.06577,-0.01 0.09766,-0.018 0.01591,-0.01 0.03155,-0.011 0.04687,-0.018 l 0.0078,0 0.0078,0 0.002,0 13.5,-6 c 0.18583,-0.083 0.3032,-0.2694 0.296842,-0.4727 l 0,-3.5 0,-2.4707 c 2.49e-4,-0.01 2.49e-4,-0.018 0,-0.027 l 0,-5.5 0,-1.5058 c 0.0055,-0.283 -0.224765,-0.5142 -0.507812,-0.5098 -0.276145,0 -0.496509,0.2317 -0.492188,0.5078 l 0,0.2383 -12.5,-5.5547 0,-0.6836 c 0.0044,-0.2822 -0.225546,-0.5122 -0.507812,-0.5078 z m -0.492188,2.2852 0,1.9062 -9.5742192,4.2539 -2.146484,-0.9531 z m 1,0 11.720703,5.207 -2.146484,0.9531 -9.574219,-4.2539 z m -1,3 0,1.9062 -6.1992192,2.7539 -2.144531,-0.9531 z m 1,0 8.34375,3.707 -2.144531,0.9531 -6.199219,-2.7539 z m -0.5,2.7773 5.470703,2.4297 -4.970703,2.209 0,-0.1875 c 0.0033,-0.2815 -0.226324,-0.5103 -0.507812,-0.5059 -0.275372,0 -0.495421,0.2305 -0.492188,0.5059 l 0,0.1875 -4.970703,-2.209 z m -13.0000002,0.1797 1.695312,0.75 -1.695312,0.7539 z m 26.0000002,0 0,1.5039 -1.695312,-0.7539 z m -23.0761722,1.2969 2.144531,0.9531 -2.142578,0.9531 -2.146484,-0.9531 z m 20.1523442,0 2.144531,0.9531 -2.146484,0.9531 -2.142578,-0.9531 z m -16.7773442,1.5 6.2011722,2.7578 0,1.9043 -8.3457032,-3.709 z m 13.4023442,0 2.144531,0.9531 -8.345703,3.709 0,-1.9043 z m -19.7011722,0.2031 1.693359,0.752 -1.693359,0.7519 z m 26.0000002,0 0,1.5039 -1.693359,-0.7519 z m -23.0761722,1.2969 9.5761722,4.2578 0,1.6738 c -4.59e-4,0.012 -4.59e-4,0.025 0,0.037 l 0,0.2364 -11.7695312,-5.2305 z m 20.1523442,0 2.193359,0.9746 -11.769531,5.2305 0,-0.2364 0,-1.7109 z m -23.0761722,1.7441 12.5000002,5.5547 0,4.9063 -12.5000002,-5.5547 0,-3.1758 z m 26.0000002,0 0,2.7305 0,2.1758 -12.5,5.5547 0,-4.9063 z"></path></g></svg></g></g></svg>