<svg xmlns="http://www.w3.org/2000/svg" xmlns:xlink="http://www.w3.org/1999/xlink" width="100" height="100" viewBox="0 0 100 100"><g><rect width="100%" height="100%" fill="#232d44"></rect><g transform="translate(50 50) scale(0.69 0.69) rotate(0) translate(-50 -50)" style="fill:#8ebb8e"><svg fill="#8ebb8e" xmlns="http://www.w3.org/2000/svg" xmlns:xlink="http://www.w3.org/1999/xlink" xml:space="preserve" version="1.1" style="shape-rendering:geometricPrecision;text-rendering:geometricPrecision;image-rendering:optimizeQuality;" viewBox="0 0 50000 50000" x="0px" y="0px" fill-rule="evenodd" clip-rule="evenodd"><defs><style type="text/css">
   
    .fil1 {fill:#8ebb8e}
    .fil0 {fill:#8ebb8e;fill-rule:nonzero}
   
  </style></defs><g><g><path class="fil0" d="M25009 37186c-5797,-194 -8370,-1372 -11062,-2605 -2176,-997 -4432,-2030 -8641,-2574l-6 0c-1250,-173 -2054,-597 -2589,-1102 -549,-518 -802,-1102 -956,-1592l-8 -31c-217,-870 -325,-2553 -325,-4223 0,-1670 108,-3353 325,-4223l8 -31c155,-489 407,-1073 956,-1592 534,-504 1339,-929 2589,-1102l6 0c4208,-544 6464,-1576 8639,-2572 2693,-1233 5266,-2410 11064,-2601l31 0c5797,194 8370,1372 11062,2605 2176,997 4432,2030 8641,2574l6 0c1250,173 2054,597 2589,1102 549,518 802,1102 956,1592l8 31c217,870 325,2553 325,4223 0,1670 -108,3353 -325,4223l-8 31c-155,489 -407,1073 -956,1592 -534,504 -1339,929 -2589,1102l-6 0c-4208,544 -6464,1576 -8639,2572 -2693,1233 -5266,2410 -11064,2601l-31 0zm-10648 -3511c2597,1189 5079,2326 10664,2514 5586,-186 8068,-1322 10666,-2511 2241,-1026 4566,-2090 8923,-2653l0 -1c1013,-140 1641,-462 2042,-840 385,-363 570,-796 686,-1163 191,-796 287,-2370 287,-3957 0,-1587 -96,-3161 -287,-3957 -116,-367 -301,-800 -686,-1163 -401,-378 -1029,-700 -2042,-840l0 -1c-4358,-564 -6683,-1628 -8925,-2655 -2597,-1189 -5079,-2326 -10664,-2514 -5586,186 -8068,1322 -10666,2511 -2241,1026 -4566,2090 -8923,2653l0 1c-1013,140 -1641,462 -2042,840 -385,363 -570,796 -686,1163 -191,796 -287,2370 -287,3957 0,1587 96,3161 287,3957 116,367 301,800 686,1163 401,378 1029,700 2042,840l0 1c4358,564 6683,1628 8925,2655z"></path><path class="fil0" d="M20582 34585c-2216,-436 -3605,-1084 -5217,-1835 -1223,-570 -2576,-1201 -4521,-1841 -1145,-377 -2463,-623 -3747,-862 -591,-110 -1176,-219 -1714,-334 -684,-146 -1092,-458 -1356,-887 -251,-408 -355,-908 -444,-1471 -101,-635 -132,-1628 -103,-2612 29,-978 117,-1954 255,-2568 276,-1672 1496,-1881 3523,-2226 958,-163 2107,-359 3421,-765 1801,-557 3143,-1164 4412,-1738 1118,-506 2180,-986 3451,-1387 1922,-607 3979,-927 6043,-967 2085,-41 4176,205 6144,729 1635,436 2888,1005 4219,1610 1277,580 2627,1194 4442,1745 880,267 1815,435 2697,594 2197,395 4080,733 4250,2405 137,614 225,1586 253,2560 29,984 -2,1977 -103,2612 -89,562 -194,1062 -444,1471 -264,429 -672,741 -1356,887 -539,115 -1123,224 -1714,334 -1283,239 -2601,485 -3747,862 -1945,640 -3298,1271 -4521,1841 -1533,714 -2865,1335 -4902,1770 -1569,335 -3087,508 -4609,519 -1521,12 -3040,-138 -4612,-447zm-5006 -2288c1583,738 2947,1374 5102,1797 1545,304 3032,451 4515,439 1483,-11 2967,-181 4507,-510 1978,-422 3288,-1032 4795,-1735 1235,-576 2602,-1213 4576,-1862 1168,-384 2508,-634 3813,-877 574,-107 1140,-213 1701,-332 530,-113 840,-344 1033,-659 206,-336 297,-782 378,-1289 96,-605 125,-1563 97,-2520 -28,-951 -113,-1894 -244,-2477l-3 -14 -2 -18c-121,-1311 -1838,-1620 -3844,-1980 -896,-161 -1845,-332 -2754,-607 -1855,-563 -3215,-1182 -4502,-1767 -1313,-597 -2550,-1159 -4141,-1583 -1925,-513 -3971,-753 -6009,-714 -2013,39 -4021,352 -5900,946 -1247,394 -2294,867 -3396,1366 -1280,579 -2635,1192 -4471,1760 -1349,417 -2513,616 -3483,781 -1812,309 -2902,495 -3117,1823l-3 16c-132,583 -216,1526 -244,2477 -28,956 1,1915 97,2520 81,507 172,953 378,1289 193,315 503,545 1033,659 560,120 1127,225 1701,332 1305,243 2645,493 3813,877 1974,650 3340,1286 4576,1862z"></path><path class="fil0" d="M10452 21620c973,0 1854,394 2491,1032 638,638 1032,1518 1032,2491 0,973 -394,1854 -1032,2491 -638,638 -1518,1032 -2491,1032 -973,0 -1854,-394 -2491,-1032 -638,-638 -1032,-1518 -1032,-2491 0,-973 394,-1854 1032,-2491 638,-638 1518,-1032 2491,-1032zm2208 1315c-565,-565 -1346,-915 -2208,-915 -862,0 -1643,350 -2208,915 -565,565 -915,1346 -915,2208 0,862 350,1643 915,2208 565,565 1346,915 2208,915 862,0 1643,-350 2208,-915 565,-565 915,-1346 915,-2208 0,-862 -350,-1643 -915,-2208z"></path><path class="fil0" d="M10452 22516c725,0 1382,294 1858,769 475,475 769,1132 769,1858 0,725 -294,1382 -769,1858 -475,475 -1132,769 -1858,769 -725,0 -1382,-294 -1858,-769 -475,-475 -769,-1132 -769,-1858 0,-725 294,-1382 769,-1858 475,-475 1132,-769 1858,-769zm1575 1052c-403,-403 -960,-652 -1575,-652 -615,0 -1172,249 -1575,652 -403,403 -652,960 -652,1575 0,615 249,1172 652,1575 403,403 960,652 1575,652 615,0 1172,-249 1575,-652 403,-403 652,-960 652,-1575 0,-615 -249,-1172 -652,-1575z"></path><path class="fil0" d="M39423 21616c973,0 1854,394 2491,1032 638,638 1032,1518 1032,2491 0,973 -394,1854 -1032,2491 -638,638 -1518,1032 -2491,1032 -973,0 -1854,-394 -2491,-1032 -638,-638 -1032,-1518 -1032,-2491 0,-973 394,-1854 1032,-2491 638,-638 1518,-1032 2491,-1032zm2208 1315c-565,-565 -1346,-915 -2208,-915 -862,0 -1643,350 -2208,915 -565,565 -915,1346 -915,2208 0,862 350,1643 915,2208 565,565 1346,915 2208,915 862,0 1643,-350 2208,-915 565,-565 915,-1346 915,-2208 0,-862 -350,-1643 -915,-2208z"></path><path class="fil0" d="M39423 22512c725,0 1382,294 1858,769 475,475 769,1132 769,1858 0,725 -294,1382 -769,1858 -475,475 -1132,769 -1858,769 -725,0 -1382,-294 -1858,-769 -475,-475 -769,-1132 -769,-1858 0,-725 294,-1382 769,-1858 475,-475 1132,-769 1858,-769zm1575 1052c-403,-403 -960,-652 -1575,-652 -615,0 -1172,249 -1575,652 -403,403 -652,960 -652,1575 0,615 249,1172 652,1575 403,403 960,652 1575,652 615,0 1172,-249 1575,-652 403,-403 652,-960 652,-1575 0,-615 -249,-1172 -652,-1575z"></path><path class="fil0" d="M24935 16573c2358,0 4492,956 6037,2501 1545,1545 2501,3679 2501,6037 0,2358 -956,4492 -2501,6037 -1545,1545 -3679,2501 -6037,2501 -2358,0 -4492,-956 -6037,-2501 -1545,-1545 -2501,-3679 -2501,-6037 0,-2358 956,-4492 2501,-6037 1545,-1545 3679,-2501 6037,-2501zm5683 2854c-1454,-1454 -3464,-2354 -5683,-2354 -2219,0 -4229,900 -5683,2354 -1454,1454 -2354,3464 -2354,5683 0,2219 900,4229 2354,5683 1454,1454 3464,2354 5683,2354 2219,0 4229,-900 5683,-2354 1454,-1454 2354,-3464 2354,-5683 0,-2219 -900,-4229 -2354,-5683z"></path><path class="fil1" d="M24466 18714l-74 -1009c-438,32 -865,101 -1278,205l248 981c357,-90 726,-150 1104,-177z"></path><path class="fil1" d="M22825 19052l-333 -956c-411,143 -806,321 -1181,531l494 884c324,-181 665,-335 1020,-459z"></path><path class="fil1" d="M21330 19805l-569 -837c-358,244 -693,518 -1003,819l705 726c267,-260 557,-497 866,-707z"></path><path class="fil1" d="M20080 20919l-766 -661c-282,326 -536,677 -758,1049l869 518c192,-321 411,-625 655,-906z"></path><path class="fil1" d="M18762 23363c102,-363 236,-712 397,-1045l-911 -441c-187,386 -342,791 -460,1210l974 276z"></path><path class="fil1" d="M18521 25021c5,-380 43,-752 112,-1113l-994 -190c-79,418 -124,848 -130,1288l1012 14z"></path><path class="fil1" d="M18715 26684c-90,-357 -150,-726 -177,-1104l-1009 74c32,438 101,865 205,1278l981 -248z"></path><path class="fil1" d="M19335 28240c-181,-324 -335,-665 -459,-1020l-956 333c143,411 321,806 531,1181l884 -494z"></path><path class="fil1" d="M20336 29582c-260,-267 -497,-557 -707,-866l-837 569c244,358 518,693 819,1003l726 -705z"></path><path class="fil1" d="M21650 30621c-321,-192 -625,-411 -906,-655l-661 766c326,282 677,536 1049,758l518 -869z"></path><path class="fil1" d="M23187 31284c-363,-102 -712,-236 -1045,-397l-441 911c386,187 791,342 1210,460l276 -974z"></path><path class="fil1" d="M24845 31524c-380,-5 -752,-43 -1113,-112l-190 994c418,79 848,124 1288,130l14 -1012z"></path><path class="fil1" d="M26756 32312l-248 -981c-357,90 -726,150 -1104,177l74 1009c438,-32 865,-101 1278,-205z"></path><path class="fil1" d="M28558 31595l-494 -884c-324,181 -665,335 -1020,459l333 956c411,-143 806,-321 1181,-531z"></path><path class="fil1" d="M30112 30435l-705 -726c-267,260 -557,497 -866,707l569 837c358,-244 693,-518 1003,-819z"></path><path class="fil1" d="M31314 28915l-869 -518c-192,321 -411,625 -655,906l766 661c282,-326 536,-677 758,-1049z"></path><path class="fil1" d="M32082 27134l-974 -276c-102,363 -236,712 -397,1045l911 441c187,-386 342,-791 460,-1210z"></path><path class="fil1" d="M32231 26503c79,-418 124,-848 130,-1288l-1012 -14c-5,380 -43,752 -112,1113l994 190z"></path><path class="fil1" d="M32342 24568c-32,-438 -101,-865 -205,-1278l-981 248c90,357 150,726 177,1104l1009 -74z"></path><path class="fil1" d="M31950 22669c-143,-411 -321,-806 -531,-1181l-884 494c181,324 335,665 459,1020l956 -333z"></path><path class="fil1" d="M31078 20937c-244,-358 -518,-693 -819,-1003l-726 705c260,267 497,557 707,866l837 -569z"></path><path class="fil1" d="M29788 19490c-326,-282 -677,-536 -1049,-758l-518 869c321,192 625,411 906,655l661 -766z"></path><path class="fil1" d="M28168 18424c-386,-187 -791,-342 -1210,-460l-276 974c363,102 712,236 1045,397l441 -911z"></path><path class="fil1" d="M26138 18809l190 -994c-418,-79 -848,-124 -1288,-130l-14 1012c380,5 752,43 1113,112z"></path><path class="fil1" d="M20713 29127c1267,541 2593,287 3633,-563 233,-191 165,-271 446,-134 -153,213 -408,284 -460,622 375,-29 405,-222 558,-458 441,199 137,394 689,435 -97,-252 -324,-426 -477,-590 379,-215 458,428 1776,833 988,304 1438,132 2300,-140 -525,-684 -2020,-1283 -3113,-1138 -332,44 -1044,335 -1102,338 -241,13 -991,-608 -2385,-249 -726,187 -1494,621 -1865,1044z"></path><path class="fil1" d="M26657 27671c13,8 33,3 40,20 7,18 31,16 40,19 608,229 1665,114 2267,-96 547,-191 1398,-779 1484,-1195 -834,-134 -1525,-136 -2310,134 -615,212 -1275,683 -1520,1116z"></path><path class="fil1" d="M19513 26421c83,409 922,999 1483,1195 598,209 1894,337 2347,56 -243,-433 -906,-905 -1520,-1116 -780,-269 -1479,-269 -2310,-134z"></path><path class="fil1" d="M21565 26193c-84,-1293 -1127,-2421 -2255,-2667 144,1379 993,2435 2255,2667z"></path><path class="fil1" d="M28435 26193c1261,-230 2113,-1290 2255,-2667 -1128,245 -2169,1375 -2255,2667z"></path><path class="fil1" d="M28962 24318c551,-517 943,-2112 331,-2836 -551,581 -920,1949 -331,2836z"></path><path class="fil1" d="M21038 24318c589,-887 220,-2254 -331,-2836 -611,722 -221,2321 331,2836z"></path><path class="fil1" d="M28486 22775c142,-1121 -266,-1783 -878,-2209 -420,916 327,1957 878,2209z"></path><path class="fil1" d="M21490 22760c513,-93 1135,-1028 916,-2180 -722,368 -1043,1310 -916,2180z"></path></g></g></svg></g></g></svg>