<svg xmlns="http://www.w3.org/2000/svg" xmlns:xlink="http://www.w3.org/1999/xlink" width="100" height="100" viewBox="0 0 100 100"><g><rect width="100%" height="100%" fill="#232d44"></rect><g transform="translate(50 50) scale(0.69 0.69) rotate(0) translate(-50 -50)" style="fill:#e73235"><svg fill="#e73235" xmlns="http://www.w3.org/2000/svg" xmlns:xlink="http://www.w3.org/1999/xlink" xml:space="preserve" version="1.1" style="shape-rendering:geometricPrecision;text-rendering:geometricPrecision;image-rendering:optimizeQuality;" viewBox="0 0 703 812" x="0px" y="0px" fill-rule="evenodd" clip-rule="evenodd"><defs><style type="text/css">
   
    .fil0 {fill:#e73235}
   
  </style></defs><g><path class="fil0" d="M600 505c12,34 47,71 103,104 -145,-84 -248,-24 -176,101 -72,-125 -176,-66 -176,102 0,-168 -103,-227 -175,-102 72,-125 -31,-185 -176,-101 56,-33 91,-70 103,-104 10,-3 27,-8 37,-2 -3,11 -8,22 -14,33 34,0 65,11 87,38 10,12 15,26 18,40 14,-5 28,-6 44,-4 35,5 59,27 76,56 17,-29 42,-51 77,-56 15,-2 30,-1 44,4 2,-14 8,-28 18,-40 22,-27 53,-38 87,-38 -6,-11 -11,-22 -14,-33 10,-6 27,-1 37,2zm-297 -34c-51,2 -114,-2 -132,-59 -3,-9 12,-14 15,-5 15,51 76,50 120,49 15,0 46,-15 45,-33 -1,-37 -10,-81 -33,-111l0 0c-16,-21 -38,-34 -67,-33 -12,0 -56,18 -72,23 -62,19 -113,35 -124,91 0,9 -16,8 -16,0 2,-10 5,-19 8,-28l-43 1 0 108c6,1 13,1 19,1 6,-1 12,-1 18,-2 -1,-6 -1,0 -1,-9 0,-9 15,-9 15,1 0,22 8,27 19,27 7,0 16,-2 25,-4 21,-5 46,-10 59,9 30,44 105,40 146,28 27,-7 22,-54 -1,-54zm97 0c51,2 114,-2 132,-59 3,-9 -12,-14 -15,-5 -16,51 -76,50 -120,49 -15,0 -46,-15 -46,-33 2,-37 11,-81 34,-111l0 0c16,-21 38,-34 67,-33 12,0 56,18 72,23 62,19 113,35 124,91 0,9 16,8 16,0 -2,-10 -5,-19 -8,-28l43 1 0 108c-6,1 -13,1 -19,1 -6,-1 -12,-1 -18,-2 1,-6 1,0 1,-9 0,-9 -15,-9 -15,1 0,22 -8,27 -19,27 -7,0 -16,-2 -25,-4 -21,-5 -46,-10 -59,9 -30,44 -105,40 -146,28 -27,-7 -22,-54 1,-54zm-49 -471c0,167 104,227 176,101 -72,126 31,186 176,102 -58,33 -93,73 -105,108 -10,-5 -20,-9 -31,-13 2,-8 6,-15 10,-22 -34,-1 -65,-11 -87,-39 -10,-12 -16,-25 -18,-39 -14,4 -29,6 -44,4 -35,-6 -60,-27 -77,-56 -17,29 -41,50 -76,56 -16,2 -30,0 -44,-4 -3,14 -8,27 -18,39 -22,28 -53,38 -87,39 4,7 8,14 10,22 -11,4 -21,8 -32,13 -11,-35 -46,-75 -104,-108 145,84 248,24 176,-102 72,126 175,66 175,-101z"></path></g></svg></g></g></svg>